<?xml version="1.0" encoding="UTF-8"?>
<svg id="Ebene_1" data-name="Ebene 1" xmlns="http://www.w3.org/2000/svg" xmlns:xlink="http://www.w3.org/1999/xlink" viewBox="0 0 566.93 283.46">
  <defs>
    <style>
      .cls-1 {
        fill: #fff;
      }

      .cls-2 {
        fill: #009fe3;
      }

      .cls-3 {
        fill: none;
      }

      .cls-4 {
        clip-path: url(#clippath);
      }
    </style>
    <clipPath id="clippath">
      <rect class="cls-3" x="10.73" y="28.89" width="430.84" height="59.88"/>
    </clipPath>
  </defs>
  <g>
    <path class="cls-1" d="M10.83,115.89h19.36c17.39,0,27.11,8.69,27.11,26.87s-8.3,29.56-27.11,29.56H10.83v-56.43ZM18.34,166h12.49c5.14,0,18.97-1.42,18.97-22.21,0-13.44-4.98-21.58-18.81-21.58h-12.65v43.78Z"/>
    <path class="cls-1" d="M72.4,124.11h-6.72v-8.22h6.72v8.22ZM65.68,131.46h6.72v40.86h-6.72v-40.86Z"/>
    <path class="cls-1" d="M118.39,172.17c-1.19.71-2.69,1.11-4.82,1.11-3.48,0-5.69-1.9-5.69-6.32-3.72,4.35-8.69,6.32-14.38,6.32-7.43,0-13.52-3.32-13.52-11.46,0-9.25,6.88-11.22,13.83-12.57,7.43-1.42,13.75-.95,13.75-6.01,0-5.85-4.82-6.8-9.09-6.8-5.69,0-9.88,1.74-10.2,7.75h-6.72c.4-10.12,8.22-13.67,17.31-13.67,7.35,0,15.33,1.66,15.33,11.22v21.02c0,3.16,0,4.58,2.13,4.58.55,0,1.18-.08,2.05-.4v5.22ZM107.49,151.22c-2.61,1.9-7.67,1.98-12.17,2.77-4.43.79-8.22,2.37-8.22,7.35,0,4.43,3.79,6.01,7.9,6.01,8.85,0,12.49-5.53,12.49-9.25v-6.88Z"/>
    <path class="cls-1" d="M124.55,115.89h6.72v33.43l18.65-17.86h9.01l-16.2,14.86,17.39,26h-8.54l-13.99-21.34-6.32,5.85v15.49h-6.72v-56.43Z"/>
    <path class="cls-1" d="M180.35,130.51c12.96,0,19.84,9.4,19.84,21.42s-6.88,21.34-19.84,21.34-19.84-9.4-19.84-21.34,6.88-21.42,19.84-21.42ZM180.35,167.34c7.03,0,12.72-5.53,12.72-15.41s-5.69-15.49-12.72-15.49-12.72,5.53-12.72,15.49,5.69,15.41,12.72,15.41Z"/>
    <path class="cls-1" d="M207.53,131.46h6.32v6.48h.16c2.85-5.06,7.43-7.43,13.28-7.43,10.75,0,14.07,6.16,14.07,14.94v26.87h-6.72v-27.66c0-4.98-3.16-8.22-8.3-8.22-8.14,0-12.09,5.45-12.09,12.8v23.08h-6.72v-40.86Z"/>
    <path class="cls-1" d="M257.72,124.11h-6.72v-8.22h6.72v8.22ZM251,131.46h6.72v40.86h-6.72v-40.86Z"/>
    <path class="cls-1" d="M302.37,159.36c-1.82,9.01-8.3,13.91-17.47,13.91-13.04,0-19.21-9.01-19.6-21.5,0-12.25,8.06-21.26,19.21-21.26,14.46,0,18.89,13.51,18.49,23.39h-30.59c-.24,7.11,3.79,13.44,12.72,13.44,5.53,0,9.4-2.69,10.59-7.98h6.64ZM295.89,147.98c-.32-6.4-5.14-11.54-11.78-11.54-7.03,0-11.22,5.3-11.7,11.54h23.47Z"/>
    <path class="cls-1" d="M314.06,159.44c.24,6,5.45,7.9,10.99,7.9,4.19,0,9.88-.95,9.88-6.09s-6.64-6.09-13.36-7.59c-6.64-1.5-13.36-3.71-13.36-11.54,0-8.22,8.14-11.62,15.25-11.62,9.01,0,16.2,2.84,16.76,12.8h-6.72c-.47-5.22-5.06-6.88-9.48-6.88-4.03,0-8.69,1.11-8.69,5.22,0,4.82,7.11,5.61,13.36,7.11,6.72,1.5,13.36,3.72,13.36,11.62,0,9.72-9.09,12.88-17.39,12.88-9.17,0-16.91-3.71-17.31-13.83h6.72Z"/>
    <path class="cls-1" d="M358.4,131.46h8.14v5.93h-8.14v25.37c0,3.08.87,3.64,5.06,3.64h3.08v5.93h-5.14c-6.96,0-9.72-1.42-9.72-8.93v-26h-6.95v-5.93h6.95v-12.25h6.72v12.25Z"/>
    <path class="cls-1" d="M379.9,124.11h-6.72v-8.22h6.72v8.22ZM373.18,131.46h6.72v40.86h-6.72v-40.86Z"/>
    <path class="cls-1" d="M392.38,137.39h-6.87v-5.93h6.87v-6.09c0-6.64,3.95-10.12,11.3-10.12,1.27,0,3.08.24,4.35.63v5.85c-1.18-.4-2.61-.55-3.79-.55-3.24,0-5.14,1.03-5.14,4.58v5.69h7.9v5.93h-7.9v34.93h-6.72v-34.93Z"/>
    <path class="cls-1" d="M423.91,131.46h8.14v5.93h-8.14v25.37c0,3.08.87,3.64,5.06,3.64h3.08v5.93h-5.14c-6.96,0-9.72-1.42-9.72-8.93v-26h-6.95v-5.93h6.95v-12.25h6.72v12.25Z"/>
    <path class="cls-1" d="M472.04,172.32h-6.32v-6.48h-.16c-2.85,5.06-7.43,7.43-13.28,7.43-10.75,0-14.07-6.17-14.07-14.94v-26.87h6.72v27.66c0,4.98,3.16,8.22,8.3,8.22,8.14,0,12.09-5.45,12.09-12.8v-23.08h6.72v40.86Z"/>
    <path class="cls-1" d="M481.52,131.46h6.32v6.48h.16c2.84-5.06,7.43-7.43,13.28-7.43,10.75,0,14.07,6.16,14.07,14.94v26.87h-6.72v-27.66c0-4.98-3.16-8.22-8.3-8.22-8.14,0-12.09,5.45-12.09,12.8v23.08h-6.72v-40.86Z"/>
    <path class="cls-1" d="M560.08,168.85c0,13.28-6.09,20.07-18.97,20.07-7.67,0-16.52-3.08-16.91-12.01h6.72c.32,4.9,6.17,6.64,10.59,6.64,8.77,0,12.25-6.32,12.25-15.49v-2.69h-.16c-2.21,4.98-7.59,7.43-12.72,7.43-12.17,0-18.26-9.56-18.26-20.71,0-9.64,4.74-21.58,18.89-21.58,5.14,0,9.72,2.29,12.17,6.8h.08v-5.85h6.32v37.38ZM553.44,151.06c0-7.19-3.16-14.62-11.62-14.62s-12.09,7.03-12.09,14.86c0,7.35,2.69,15.57,11.54,15.57s12.17-8.14,12.17-15.81Z"/>
  </g>
  <g>
    <path class="cls-1" d="M16.84,204.8h-6.72v-8.22h6.72v8.22ZM10.12,212.15h6.72v40.86h-6.72v-40.86Z"/>
    <path class="cls-1" d="M26.4,212.15h6.32v6.48h.16c2.85-5.06,7.43-7.43,13.28-7.43,10.75,0,14.07,6.17,14.07,14.94v26.87h-6.72v-27.66c0-4.98-3.16-8.22-8.3-8.22-8.14,0-12.09,5.45-12.09,12.8v23.08h-6.72v-40.86Z"/>
    <path class="cls-1" d="M125.43,213.1c-.87-8.06-6.24-11.54-13.99-11.54-6.32,0-12.65,2.29-12.65,9.64,0,6.96,9.01,7.98,18.1,10.04,9.01,2.06,18.02,5.22,18.02,16.28,0,12.01-11.78,16.84-22.05,16.84-12.65,0-23.32-6.17-23.32-19.92h7.11c0,9.48,7.9,13.59,16.44,13.59,6.8,0,14.31-2.13,14.31-10.27s-9.01-9.09-18.02-11.07c-9.01-1.97-18.1-4.58-18.1-14.94,0-11.46,10.2-16.52,20.47-16.52,11.54,0,20.31,5.45,20.79,17.86h-7.11Z"/>
    <path class="cls-1" d="M178.69,252.85c-1.19.71-2.69,1.11-4.82,1.11-3.48,0-5.69-1.9-5.69-6.32-3.72,4.35-8.69,6.32-14.38,6.32-7.43,0-13.52-3.32-13.52-11.46,0-9.25,6.88-11.22,13.83-12.57,7.43-1.42,13.75-.95,13.75-6.01,0-5.85-4.82-6.8-9.09-6.8-5.69,0-9.88,1.74-10.2,7.75h-6.72c.4-10.12,8.22-13.67,17.31-13.67,7.35,0,15.33,1.66,15.33,11.22v21.02c0,3.16,0,4.58,2.13,4.58.55,0,1.19-.08,2.06-.4v5.22ZM167.79,231.91c-2.61,1.9-7.67,1.98-12.17,2.77-4.43.79-8.22,2.37-8.22,7.35,0,4.43,3.79,6.01,7.9,6.01,8.85,0,12.49-5.53,12.49-9.25v-6.88Z"/>
    <path class="cls-1" d="M211.96,225.27c-1.03-5.14-4.58-8.14-10.12-8.14-9.72,0-12.72,7.67-12.72,15.97,0,7.51,3.4,14.94,11.93,14.94,6.48,0,10.35-3.79,11.22-9.96h6.88c-1.5,9.96-7.75,15.89-18.02,15.89-12.49,0-19.13-8.69-19.13-20.87s6.32-21.89,19.28-21.89c9.25,0,16.68,4.35,17.62,14.07h-6.95Z"/>
    <path class="cls-1" d="M226.18,196.58h6.72v21.58h.16c2.21-4.9,7.98-6.96,12.88-6.96,10.75,0,14.07,6.17,14.07,14.94v26.87h-6.72v-27.66c0-4.98-3.16-8.22-8.3-8.22-8.14,0-12.09,5.45-12.09,12.8v23.08h-6.72v-56.43Z"/>
    <path class="cls-1" d="M273.76,240.13c.24,6,5.45,7.9,10.99,7.9,4.19,0,9.88-.95,9.88-6.09s-6.64-6.09-13.36-7.59c-6.64-1.5-13.36-3.72-13.36-11.54,0-8.22,8.14-11.62,15.25-11.62,9.01,0,16.2,2.85,16.76,12.8h-6.72c-.47-5.22-5.06-6.88-9.49-6.88-4.03,0-8.69,1.11-8.69,5.22,0,4.82,7.11,5.61,13.36,7.11,6.72,1.5,13.36,3.71,13.36,11.62,0,9.72-9.09,12.88-17.39,12.88-9.17,0-16.91-3.71-17.31-13.83h6.72Z"/>
    <path class="cls-1" d="M343.55,240.05c-1.82,9.01-8.3,13.91-17.47,13.91-13.04,0-19.21-9.01-19.6-21.5,0-12.25,8.06-21.26,19.21-21.26,14.46,0,18.89,13.52,18.49,23.4h-30.59c-.24,7.11,3.79,13.44,12.73,13.44,5.53,0,9.4-2.69,10.59-7.98h6.64ZM337.06,228.67c-.32-6.4-5.14-11.54-11.77-11.54-7.03,0-11.22,5.3-11.7,11.54h23.47Z"/>
    <path class="cls-1" d="M350.97,212.15h6.32v6.48h.16c2.84-5.06,7.43-7.43,13.28-7.43,10.75,0,14.07,6.17,14.07,14.94v26.87h-6.72v-27.66c0-4.98-3.16-8.22-8.3-8.22-8.14,0-12.09,5.45-12.09,12.8v23.08h-6.72v-40.86Z"/>
  </g>
  <g class="cls-4">
    <path class="cls-2" d="M10.73,28.99h29.68c19.57,0,26.48,14.47,26.48,29.27,0,18.01-9.54,29.44-30.01,29.44H10.73V28.99ZM28.82,72.66h7.07c11.27,0,12.91-9.13,12.91-14.63,0-3.71-1.15-13.98-14.23-13.98h-5.75v28.62ZM87.77,40.43h-16.28v-11.43h16.28v11.43ZM71.49,45.03h16.28v42.67h-16.28v-42.67ZM136.61,78.17c0,3.2.17,6.83,1.98,9.54h-16.61c-.41-1.16-.66-2.88-.57-4.04h-.17c-3.45,3.95-8.47,5.11-13.73,5.11-8.22,0-15.05-3.95-15.05-12.91,0-13.49,15.79-12.99,24.09-14.55,2.22-.41,4.44-1.07,4.44-3.78,0-2.88-2.71-3.95-5.34-3.95-5.01,0-6,2.55-6.09,4.36h-15.12c.49-12.01,11.84-13.98,21.95-13.98,20.4,0,20.23,8.48,20.23,16.7v17.51ZM120.99,68.54c-1.97.99-4.19,1.56-6.41,2.06-3.62.82-5.51,1.73-5.51,4.6,0,1.98,2.14,3.95,5.1,3.95,3.7,0,6.58-2.22,6.82-6.66v-3.95ZM143.1,28.99h16.28v28.37l10.36-12.33h18.42l-15.21,16.11,17.6,26.56h-19.57l-8.71-15.46-2.88,3.12v12.34h-16.28V28.99ZM211.6,88.77c-16.03,0-23.27-10.61-23.27-22.45s7.24-22.37,23.27-22.37,23.26,10.53,23.26,22.37-7.23,22.45-23.26,22.45M211.6,55.8c-6.16,0-6.99,6-6.99,10.53s.83,10.6,6.99,10.6,6.99-6.08,6.99-10.6-.82-10.53-6.99-10.53M239.88,45.03h15.7v5.42h.17c3.04-4.27,7.4-6.5,13.9-6.5,7.65,0,14.64,4.69,14.64,14.47v29.27h-16.28v-22.37c0-4.93-.57-8.39-5.35-8.39-2.79,0-6.49,1.4-6.49,8.22v22.54h-16.28v-42.67ZM307.06,40.43h-16.28v-11.43h16.28v11.43ZM290.77,45.03h16.28v42.67h-16.28v-42.67ZM326.79,70.03c.4,4.85,3.2,8.3,8.3,8.3,2.63,0,5.51-.99,6.84-3.04h15.2c-3.29,9.21-12.25,13.49-21.95,13.49-13.65,0-23.93-8.07-23.93-22.28,0-12.42,9.04-22.54,22.53-22.54,16.94,0,24.26,9.46,24.26,26.07h-31.24ZM342.41,61.55c0-3.94-2.96-7.15-7.16-7.15-4.85,0-7.64,2.55-8.39,7.15h15.54ZM409.79,55.81v-7.59c0-4.32-3.59-7.75-8.04-7.75s-8.08,3.42-8.08,7.75,3.65,7.59,8.08,7.59h8.04ZM409.79,28.89h-26.93v26.94h9.06c-1.83-2.06-2.91-4.78-2.91-7.6,0-6.82,5.71-12.27,12.73-12.27,3.04,0,5.81,1,8.04,2.7v-9.77ZM422.7,55.81c4.5,0,8.06-3.45,8.06-7.59s-3.55-7.75-8.06-7.75-8.02,3.42-8.02,7.75v7.59h8.02ZM414.64,38.66c2.23-1.7,5.02-2.7,8.04-2.7,7.02,0,12.7,5.45,12.7,12.27,0,2.82-1.05,5.54-2.82,7.6h9v-26.94h-26.92v9.77ZM382.86,87.64h26.92v-26.94h-26.92v26.94ZM414.64,87.64h26.93v-26.94h-26.93v26.94Z"/>
  </g>
</svg>